<?xml version="1.0" encoding="UTF-8" standalone="no"?>
<svg
   id="Layer_1"
   data-name="Layer 1"
   width="750"
   height="151.16"
   viewBox="0 0 750 151.16"
   version="1.1"
   sodipodi:docname="logo_cassandra.svg"
   inkscape:export-filename="logo_cassandra.png"
   inkscape:export-xdpi="96"
   inkscape:export-ydpi="96"
   inkscape:version="1.2.1 (9c6d41e410, 2022-07-14)"
   xmlns:inkscape="http://www.inkscape.org/namespaces/inkscape"
   xmlns:sodipodi="http://sodipodi.sourceforge.net/DTD/sodipodi-0.dtd"
   xmlns="http://www.w3.org/2000/svg"
   xmlns:svg="http://www.w3.org/2000/svg">
  <sodipodi:namedview
     id="namedview376"
     pagecolor="#ffffff"
     bordercolor="#666666"
     borderopacity="1.0"
     inkscape:showpageshadow="2"
     inkscape:pageopacity="0.0"
     inkscape:pagecheckerboard="0"
     inkscape:deskcolor="#d1d1d1"
     showgrid="false"
     inkscape:zoom="1.688"
     inkscape:cx="375"
     inkscape:cy="75.829384"
     inkscape:window-width="1864"
     inkscape:window-height="1007"
     inkscape:window-x="56"
     inkscape:window-y="44"
     inkscape:window-maximized="1"
     inkscape:current-layer="Layer_1" />
  <defs
     id="defs284">
    <style
       id="style270">.cls-1{fill:none;}.cls-2{fill:#373535;}.cls-3{fill:#bbe6fb;}.cls-4{clip-path:url(#clip-path);}.cls-5{opacity:0.35;}.cls-6{fill:#fff;}.cls-7{fill:#1287b1;}.cls-8{clip-path:url(#clip-path-2);}.cls-9{clip-path:url(#clip-path-3);}.cls-10{clip-path:url(#clip-path-4);}</style>
    <clipPath
       id="clip-path"
       transform="translate(0 -300.25)">
      <rect
         class="cls-1"
         x="75.85"
         y="317.26"
         width="117.15"
         height="82.5"
         id="rect272" />
    </clipPath>
    <clipPath
       id="clip-path-2"
       transform="translate(0 -300.25)">
      <rect
         class="cls-1"
         x="109.28"
         y="327.28"
         width="60.9"
         height="60.85"
         id="rect275" />
    </clipPath>
    <clipPath
       id="clip-path-3"
       transform="translate(0 -300.25)">
      <rect
         class="cls-1"
         x="2.07"
         y="303.65"
         width="281.83"
         height="82.03"
         id="rect278" />
    </clipPath>
    <clipPath
       id="clip-path-4"
       transform="translate(0 -300.25)">
      <rect
         class="cls-1"
         x="0.9"
         y="353.46"
         width="264.55"
         height="97.95"
         id="rect281" />
    </clipPath>
  </defs>
  <title
     id="title286">cassandra-logo</title>
  <path
     class="cls-2"
     d="M375.18,316.17h2.51c0,3.09.05,6.18,0,9.27,2.67-3.47,8.85-3.76,10.85.51,1.41,4.28.48,8.91.71,13.33h-2.49c-.17-3.82.34-7.68-.29-11.47-1-3.92-7.32-3.55-8.41.16-.7,3.72-.14,7.56-.33,11.31h-2.51Q375.15,327.73,375.18,316.17Z"
     transform="translate(0 -300.25)"
     id="path288" />
  <path
     class="cls-2"
     d="M303.76,317.05c1,.07,2.52-.41,2.88.94,3.13,7.11,6.31,14.19,9.4,21.32l-2.63,0c-.85-1.93-1.71-3.84-2.56-5.76-4,.05-8-.08-11.93.14-.72,1.82-1.47,3.64-2.21,5.46l-2.76.27C297.14,331.91,300.64,324.56,303.76,317.05Zm-3.54,14.18h9.59q-2.28-5.57-4.8-11C303.24,323.79,301.68,327.49,300.22,331.23Z"
     transform="translate(0 -300.25)"
     id="path290" />
  <path
     class="cls-2"
     d="M319.17,322.73l2.41,0c.11,1.1.22,2.2.32,3.3A7.27,7.27,0,0,1,332,324c5.06,3.13,4.79,11.71-.55,14.43a7.6,7.6,0,0,1-9.81-2.41c.07,2.75,0,5.5,0,8.26l-2.51,0Q319.08,333.49,319.17,322.73Zm6,2.74c-4.73,1.8-4.62,9.3.06,11.08a5.67,5.67,0,0,0,8-5.53A5.78,5.78,0,0,0,325.14,325.47Z"
     transform="translate(0 -300.25)"
     id="path292" />
  <path
     class="cls-2"
     d="M340.74,323.84c3.7-1.36,9.44-2.15,11.39,2.24,1.26,4.24.35,8.77.64,13.14l-2.25.11c0-.62-.08-1.84-.12-2.46a7.58,7.58,0,0,1-10,.85c-2.29-1.75-1.82-5.68.57-7.13,2.83-1.93,6.43-1.15,9.57-.62-.32-1.4-.24-3.14-1.6-4-2.48-1.87-5.63-.39-8.34,0Zm2.23,8a2.79,2.79,0,0,0-.46,4.67c3.38,2.39,8.81-.3,8.13-4.68C348.14,331.43,345.38,330.72,343,331.84Z"
     transform="translate(0 -300.25)"
     id="path294" />
  <path
     class="cls-2"
     d="M357.24,332.72a8.27,8.27,0,0,1,7.32-9.89c2.73-.38,5.23,1,7.28,2.63L369.93,327c-1.85-1.67-4.52-3-6.95-1.65-4.55,1.88-4.51,9.33,0,11.18,2.66,1.34,5.51-.07,7.55-1.84,2.43,1.7-.72,3.38-2.32,4.07A8.31,8.31,0,0,1,357.24,332.72Z"
     transform="translate(0 -300.25)"
     id="path296" />
  <path
     class="cls-2"
     d="M396.92,324.66c2.85-2.62,7.88-2.5,10.35.58,1.75,1.82,1.93,4.44,2.05,6.83-4.27,0-8.55,0-12.82,0,.51,2.29,1.9,4.67,4.39,5.14,2.4.7,4.63-.7,6.54-2l1.4,1.41c-3,2.56-7.46,3.56-10.94,1.43C393.22,335.39,393,328.08,396.92,324.66Zm-.5,5.5c3.52,0,7.05,0,10.57,0-.42-2.72-2.26-5.78-5.41-5.46C398.57,324.7,397.1,327.67,396.42,330.16Z"
     transform="translate(0 -300.25)"
     id="path298" />
  <path
     class="cls-2"
     d="M300.92,360.32c6-9.75,22.6-10.35,28.84-.6,2.54,3.83,3.09,8.5,3.57,12.95-2.57-.09-5.31.49-7.77-.32-.77-2.92-.8-6.17-2.68-8.69-2.84-4.6-10.07-5.19-13.8-1.38-3.51,3.51-4.54,8.62-5.26,13.34a113.38,113.38,0,0,0,0,24.57c.63,4.56,1.53,9.41,4.53,13.07,3.29,4.13,10.31,3.93,13.59-.09,2.46-2.85,3.08-6.68,3.71-10.26,2.52,0,5.06,0,7.58,0,0,7.47-3.4,15.84-10.7,18.87s-17.56,1.69-22.15-5.52-5-16.38-5.32-24.81C295,380.9,295.1,369.52,300.92,360.32Z"
     transform="translate(0 -300.25)"
     id="path300" />
  <path
     class="cls-2"
     d="M401.6,359.76c5.09-7.62,16.36-8.73,24-4.61,5.45,3,7.16,9.61,7.66,15.4-2.58.14-5.17.18-7.74.14-.55-2.73-.83-5.69-2.6-7.95-3.62-4.84-12.38-4.42-15.15,1.09-2.15,4.44-1.63,10.47,2.19,13.87,4.9,4.5,11.71,6,16.8,10.26,7.72,5.51,9.17,16.5,6,24.93-2.07,5.64-7.68,9.4-13.55,10-5.68.6-12.05.13-16.53-3.81-4.29-3.77-5.66-9.66-6.1-15.12h7.73c.65,4.51,2.14,9.7,6.71,11.68,3.83,1.46,8.75,1.38,12-1.38,3.72-3.6,3.79-9.43,2.61-14.14-1.59-5.33-6.91-8.12-11.52-10.47-5.55-2.65-11.58-5.92-14-11.91C398,372,398.16,365,401.6,359.76Z"
     transform="translate(0 -300.25)"
     id="path302" />
  <path
     class="cls-2"
     d="M456,354.93c6.35-3.08,14.64-2.94,20.39,1.39,4.3,3.4,5.5,9.08,5.94,14.25-2.56.11-5.13.12-7.69.05-.53-3.17-1.09-6.62-3.56-8.93-4-3.76-11.82-2.93-14.25,2.25-2.11,4.43-1.51,10.35,2.19,13.77s9,5.12,13.35,7.83,8.27,6.15,9.86,11a25.41,25.41,0,0,1-.08,15.62,16,16,0,0,1-12.83,10.56c-6,.84-12.77.47-17.53-3.7-4.3-3.76-5.59-9.64-6.1-15.07q3.87,0,7.74,0c.62,3.18,1.17,6.59,3.39,9.1,3.32,4.12,9.72,4.43,14.16,2.08,4.64-2.92,5-9.27,4-14.13-1.19-5.58-6.49-8.76-11.24-11.08-5.7-2.77-12-6-14.56-12.22C446.17,369.83,448.08,359.13,456,354.93Z"
     transform="translate(0 -300.25)"
     id="path304" />
  <path
     class="cls-2"
     d="M510.58,353.81c3.22.09,6.44.09,9.67,0,6.08,22.71,11.4,45.64,17.17,68.44-2.77.05-5.55.05-8.31,0-1.51-7.25-3.39-14.4-4.89-21.64-5.85-.15-11.7-.11-17.56,0-1.62,7.09-3.05,14.23-4.91,21.26-2.36,1.13-5.28.29-7.86.28C499.68,399.37,504.78,376.5,510.58,353.81Zm-2.29,39.86c4.76,0,9.52.05,14.28,0-2.57-10.75-5.12-21.51-7.42-32.32C513.33,372.22,510.53,382.89,508.29,393.67Z"
     transform="translate(0 -300.25)"
     id="path306" />
  <path
     class="cls-2"
     d="M580.71,353.79c2.4,0,4.8.1,7.2.26-.22,22.75.13,45.5-.17,68.24-3,0-5.88-.05-8.82-.05-7.1-18-14.27-36-21.2-54-.27-.52-.79-1.56-1.05-2.08.14,18.69.2,37.41.07,56.13-2.39,0-4.76,0-7.14,0-.16-22.79,0-45.59-.07-68.38a96.91,96.91,0,0,1,9.79.16c5.12,13.6,10.75,27,16.08,40.55,2,4.65,3.48,9.51,5.76,14Q580.26,381.23,580.71,353.79Z"
     transform="translate(0 -300.25)"
     id="path308" />
  <path
     class="cls-2"
     d="M606.17,353.88c6.59.17,13.2-.33,19.78.25,7.31.77,13.38,6.33,15.65,13.2,3.32,9.65,3,20.1,2.11,30.13-1,8.42-3.81,17.87-11.79,22.18-8,4-17.25,2.27-25.83,2.51C606.23,399.4,606.06,376.64,606.17,353.88Zm7.72,6.76c0,18.26,0,36.53,0,54.79,4.9,0,10.32.75,14.61-2.18s6-8.38,6.93-13.32a80.85,80.85,0,0,0,0-25.37c-.91-4.55-2.74-9.45-6.9-12C624.13,359.82,618.77,360.74,613.89,360.64Z"
     transform="translate(0 -300.25)"
     id="path310" />
  <path
     class="cls-2"
     d="M359.3,354c3.37-.16,6.75-.17,10.12-.13,5.7,22.8,11.51,45.58,16.92,68.44q-4.08,0-8.16,0-2.58-10.87-5.05-21.76c-5.83.05-11.66-.08-17.49.09-1.49,7.24-3.27,14.41-4.87,21.63-2.56,0-5.13.06-7.69.09C348.14,399.45,354.13,376.81,359.3,354Zm3.76,13.29c-1.71,8.85-3.88,17.6-5.78,26.41,4.76,0,9.51,0,14.27,0-2.57-10.13-4.61-20.39-7.24-30.48C363.46,364.38,363.38,365.89,363.06,367.27Z"
     transform="translate(0 -300.25)"
     id="path312" />
  <path
     class="cls-2"
     d="M659.9,354c6.27-.25,12.56-.1,18.84-.13,5,0,10.45,1.78,13.44,6,3.5,5,3.65,11.62,2.55,17.43a15,15,0,0,1-7.5,10.05c3,1.88,5.62,4.6,6.33,8.2,2,8.71,0,17.78,2,26.53q-3.87.15-7.72.13c-1.38-6.88-.87-13.9-1.1-20.85-.18-3.73-1.4-8.24-5.27-9.69-4.38-1.49-9.1-1-13.64-1.1-.15,10.55,0,21.1-.1,31.65l-7.7-.06C659.92,399.48,660.07,376.75,659.9,354Zm7.83,6.37c0,7.95,0,15.88,0,23.82,5.93-.33,13.77,1.61,17.77-4.11,2.84-5.22,3.1-12.73-1.21-17.24C679.7,359,673.22,360.78,667.73,360.39Z"
     transform="translate(0 -300.25)"
     id="path314" />
  <path
     class="cls-2"
     d="M723.12,354.05c3.33-.18,6.66-.18,10-.18,4.25,16,7.95,32.1,12.06,48.12,1.56,6.76,3.61,13.41,4.84,20.26q-4,0-8,0c-1.74-7.28-3.39-14.57-5.11-21.83-5.86.07-11.72-.14-17.57.13-1.44,7.24-3.25,14.41-4.84,21.63l-7.72.07C712.11,399.51,717.87,376.84,723.12,354.05Zm4.86,8.06c-2.36,10.49-4.49,21-7,31.49,4.78.21,9.56.1,14.35.1Q731.7,377.91,728,362.11Z"
     transform="translate(0 -300.25)"
     id="path316" />
  <g
     id="g4625">
    <g
       id="g3612">
      <path
         id="path3614"
         class="cls-3"
         d="M228.27,351c2.11,24.49-36.43,47.79-86.06,52.05s-91.56-12.14-93.66-36.63,36.43-47.79,86.06-52,91.56,12.14,93.66,36.62"
         transform="translate(0 -300.25)" />
    </g>
    <g
       id="g3616">
      <g
         id="g3624">
        <g
           class="cls-4"
           clip-path="url(#clip-path)"
           id="g323">
          <g
             id="g3626"
             class="cls-5">
            <g
               id="g3628">
              <path
                 id="path3630"
                 class="cls-6"
                 d="M136.06,317.27C117.13,317,95,324.48,78.49,331.52a47.74,47.74,0,0,0-2.64,15.65c0,29,26.23,52.59,58.58,52.59S193,376.21,193,347.17a48.23,48.23,0,0,0-7.25-25.34,373,373,0,0,0-49.7-4.56"
                 transform="translate(0 -300.25)" />
            </g>
          </g>
        </g>
      </g>
    </g>
    <g
       id="g3632">
      <path
         id="path3634"
         class="cls-6"
         d="M134.43,317.26c-10.48-.64-28.55,4.83-43.61,10.29a44.72,44.72,0,0,0-3.56,17.51c0,25.45,23.07,46.08,47.48,46.08,24.24,0,45.7-20.66,47.48-46.08.57-8.27-2.27-16.07-6.23-22.79a404.32,404.32,0,0,0-41.56-5"
         transform="translate(0 -300.25)" />
    </g>
    <g
       id="g3636">
      <path
         id="path3638"
         class="cls-2"
         d="M107.53,341.72c1.29-2.85,3.24-4.24,5.12-6.63a14.66,14.66,0,0,1-.67-3,5.19,5.19,0,0,1,5.19-5.19,5.28,5.28,0,0,1,1.91.37,37.82,37.82,0,0,1,31.22-6.85c1,.24,2,.52,3,.83-11.22-1.56-23.86,2.42-32.46,9.36a12.89,12.89,0,0,1,1,3.1c0,2.86-1.85,3.56-4.71,3.56a5.42,5.42,0,0,1-1.85-.34,52.79,52.79,0,0,0-5.49,10.68c4.76,4.25,9.06,5.8,14.65,7.89,0-.27.2-.52.2-.79,0-8.63,7.59-15.64,16.22-15.64a15.62,15.62,0,0,1,15.39,13c3.86-2.45,7.59-4.33,10.43-8a9.21,9.21,0,0,1-1.38-4.23,4.7,4.7,0,0,1,4.71-4.7,4.59,4.59,0,0,1,1.06.13,41.07,41.07,0,0,0,3.23-9.35c-13.49-10-39.6-8.63-39.6-8.63S114,316.18,99.9,323a41.31,41.31,0,0,0,7.63,18.68"
         transform="translate(0 -300.25)" />
    </g>
    <g
       id="g3640">
      <path
         id="path3642"
         class="cls-2"
         d="M172,337.83a8.67,8.67,0,0,1,1.88,2.35c1.27,2.27-1.27,4.34-3.86,4.34a4.79,4.79,0,0,1-.77-.07c-2.93,4.57-8.05,10.43-12.61,13.38a39.73,39.73,0,0,1,18.81,8.26A55.83,55.83,0,0,0,182.22,341a17.87,17.87,0,0,0-7.07-14.49c-.23,3.41-2.05,8.19-3.12,11.31"
         transform="translate(0 -300.25)" />
    </g>
    <g
       id="g3644">
      <path
         id="path3646"
         class="cls-2"
         d="M115.36,381.12c2.33-6.43,8-11.4,13.46-15.78a30.19,30.19,0,0,1-2.47-5,37.94,37.94,0,0,1-17-10.74c0,.14-.08.28-.11.43a34.53,34.53,0,0,0-.59,11.39,6.82,6.82,0,0,1,5.56,6.69c0,2-1.73,4.84-3.08,6.08a32.08,32.08,0,0,0,4.2,7"
         transform="translate(0 -300.25)" />
    </g>
    <g
       id="g3648">
      <path
         id="path3650"
         class="cls-2"
         d="M115,386.51c-2.77-2.76-4.69-8.26-6.49-11.72a5.89,5.89,0,0,1-1,.09c-3.77,0-7.71-3.16-6.82-6.81.5-2,1.89-3.35,4.16-4.45a48.24,48.24,0,0,1,.32-14.57,29.41,29.41,0,0,1,1.26-3,40,40,0,0,1-6.83-22c0-.29,0-.58,0-.86-7,3.51-12.28,9.06-12.28,17.78,0,19.31,11.12,38.24,27.66,45.67l0-.16"
         transform="translate(0 -300.25)" />
    </g>
    <g
       id="g3652">
      <path
         id="path3654"
         class="cls-2"
         d="M155.63,359.82a15.6,15.6,0,0,1-24.37,7.11c-5.48,4.26-10.44,11.75-13,18.25a35.68,35.68,0,0,0,3.2,3.31c3.83,1,9.1,0,13.25,0,16.68,0,31.45-7.42,39.92-20.44-5.63-3.9-12.28-7.61-19-8.23"
         transform="translate(0 -300.25)" />
    </g>
    <g
       id="g3656">
      <path
         id="path3658"
         class="cls-7"
         d="M107.1,344a37.52,37.52,0,0,1,4.79-7.87,5.24,5.24,0,0,1-.33-1.82,5.18,5.18,0,0,1,5.18-5.18,5.08,5.08,0,0,1,1.91.37,37.75,37.75,0,0,1,31.22-6.85c1,.23,2,.51,3,.82a41.58,41.58,0,0,0-31.4,8.83,5.17,5.17,0,0,1-6.63,6.85,34.78,34.78,0,0,0-4.69,8.6,38.73,38.73,0,0,0,14.69,10c0-.27,0-.54,0-.81a15.62,15.62,0,0,1,31-2.62A40.52,40.52,0,0,0,166,345a4.68,4.68,0,0,1,3.63-7.66,4.75,4.75,0,0,1,1.07.14,41.64,41.64,0,0,0,3.23-9.36c-13.5-10-39.61-8.63-39.61-8.63s-20.78-1.08-34.84,5.77A41.46,41.46,0,0,0,107.1,344"
         transform="translate(0 -300.25)" />
    </g>
    <g
       id="g3660">
      <path
         id="path3662"
         class="cls-7"
         d="M172.76,338.6a4.69,4.69,0,0,1-3.14,8.18,4.9,4.9,0,0,1-.77-.08,38.07,38.07,0,0,1-11.36,11.42,38,38,0,0,1,18.3,8.23,47.17,47.17,0,0,0,6-23.09,17.88,17.88,0,0,0-7.07-14.49,37.7,37.7,0,0,1-2,9.83"
         transform="translate(0 -300.25)" />
    </g>
    <g
       id="g3664">
      <path
         id="path3666"
         class="cls-7"
         d="M116.08,382.66a37.92,37.92,0,0,1,11.78-16.56,15.85,15.85,0,0,1-1.94-3.55,37.77,37.77,0,0,1-17-10.74c0,.15-.08.29-.11.43a34.29,34.29,0,0,0-.58,11.39,6.81,6.81,0,0,1,3.36,11.69,41.08,41.08,0,0,0,4.46,7.34"
         transform="translate(0 -300.25)" />
    </g>
    <g
       id="g3668">
      <path
         id="path3670"
         class="cls-7"
         d="M114.94,386.43a37.8,37.8,0,0,1-6.91-9.38,6.92,6.92,0,0,1-1,.09,6.81,6.81,0,0,1-3-12.94,37.77,37.77,0,0,1,.63-12.89c.28-1.24.62-2.46,1-3.65a37.68,37.68,0,0,1-6.58-21.33c0-.29,0-.57,0-.86-7,3.52-12.28,9.06-12.28,17.79a47.5,47.5,0,0,0,28.07,43.33.94.94,0,0,1,0-.16"
         transform="translate(0 -300.25)" />
    </g>
    <g
       id="g3672">
      <path
         id="path3674"
         class="cls-7"
         d="M155.2,362.08a15.59,15.59,0,0,1-24.37,7.1,38.74,38.74,0,0,0-12.13,16.58,42,42,0,0,0,3.61,3.45,47.53,47.53,0,0,0,51.81-20.09,39.82,39.82,0,0,0-18.92-7"
         transform="translate(0 -300.25)" />
    </g>
    <g
       id="g3676">
      <g
         id="g3684">
        <g
           class="cls-8"
           clip-path="url(#clip-path-2)"
           id="g352">
          <g
             id="g3686">
            <g
               id="g3688">
              <path
                 id="path3690"
                 class="cls-6"
                 d="M155.75,358.05l14.44-3.44-14.49-.74,11.79-9-13.38,4.79,9.09-12.6-12.56,8.35L155,330.65l-8.62,12.16-.2-15.37-5.67,13.69-4.73-13.85.25,16.31L127.88,329l4.43,15.53-13.26-9.65,10.39,13.06L113,341.85l13,9.62L109.3,352l17,4.4-17.06,3.68,16.84,1.23-14.2,9.08,14.62-5.29L116.4,377.92l12.81-10.33-4.61,17.23,9.89-14-1.38,16.56,5.61-15,4.78,15.79,1.17-15.84,7.09,13.52-4.19-15.46,13,10.07-8.38-12.83,14.25,5.55-10.9-10.71,14.62,1.15Z"
                 transform="translate(0 -300.25)" />
            </g>
          </g>
        </g>
      </g>
    </g>
    <g
       id="g3692">
      <g
         id="g3700">
        <g
           class="cls-9"
           clip-path="url(#clip-path-3)"
           id="g359">
          <g
             id="g3702"
             class="cls-5">
            <g
               id="g3704">
              <path
                 id="path3706"
                 class="cls-2"
                 d="M2.07,385.67c44.77-44.76,80.53-58.59,113-64.89,4.29-.84,5.1-10.22,5.1-10.22s.61,6.91,3.61,7.81,6.91-10.82,6.91-10.82-3.61,10.52,0,11.12,10.21-10.21,10.21-10.21-2.7,9.31-.89,9.91,10.81-13.52,10.81-13.52-5.41,9.31-.3,10.22,12.56-6.36,12.56-6.36-5.86,6.64-3.25,7.56c11.12,3.9,20.12-10.55,20.12-10.55A48.89,48.89,0,0,1,172.44,319c11.71,3,20.41-14.65,20.41-14.65L184.15,322c4.51,2.41,22.54-18.32,22.54-18.32s-9.32,16.22-14.73,19.53c3,2.4,13.83-7.21,13.83-7.21s-8.72,10.81-5.41,11.41c4.8,3.91,22.53-20.13,22.53-20.13s-6.91,14.12-17.12,25.24c8.54,4.27,29.74-23.13,29.74-23.13s-.6,8.71-15.92,22.53c11.42-1.5,26.14-23.14,26.14-23.14S240.34,325,227.42,336.4c11.21-1.17,29.14-28.85,29.14-28.85s-6.91,19.23-21,30.35c15.63,3.46,38.16-19.83,38.16-19.83s-8.86,16.53-20.43,23.29c12.92,4.95,30.65-15.48,30.65-15.48s-17.73,27.34-46,26.14c-9.27-.39-37.3-28.11-97.36-25.84-79.32,3-96.14,36.66-138.51,59.49"
                 transform="translate(0 -300.25)" />
            </g>
          </g>
        </g>
      </g>
    </g>
    <g
       id="g3708">
      <path
         id="path3710"
         class="cls-2"
         d="M3.91,382.27c44.77-44.76,80.52-58.58,113-64.89,4.3-.84,5.11-10.22,5.11-10.22s.6,6.91,3.6,7.81,6.91-10.81,6.91-10.81-3.6,10.51,0,11.11,10.22-10.21,10.22-10.21-2.7,9.31-.9,9.91,10.82-13.52,10.82-13.52-5.41,9.31-.31,10.22,12.57-6.36,12.57-6.36-5.86,6.64-3.25,7.56c11.12,3.9,20.11-10.54,20.11-10.54a48.59,48.59,0,0,1-7.49,13.24c11.72,3,20.42-14.65,20.42-14.65L186,318.58c4.5,2.4,22.53-18.33,22.53-18.33s-9.31,16.22-14.72,19.53c3,2.4,13.82-7.21,13.82-7.21s-8.71,10.81-5.41,11.41c4.81,3.91,22.54-20.13,22.54-20.13s-6.92,14.13-17.13,25.24c8.54,4.28,29.75-23.13,29.75-23.13s-.61,8.71-15.93,22.53c11.42-1.5,26.14-23.13,26.14-23.13s-5.41,16.22-18.33,27.64c11.21-1.17,29.15-28.84,29.15-28.84s-6.91,19.22-21,30.34c15.62,3.46,38.15-19.83,38.15-19.83S266.66,331.2,255.09,338c12.92,5,30.65-15.48,30.65-15.48s-17.73,27.35-46,26.14c-9.27-.39-37.3-28.11-97.35-25.84-79.32,3-96.15,36.66-138.51,59.49"
         transform="translate(0 -300.25)" />
    </g>
    <g
       id="g3712">
      <g
         id="g3720">
        <g
           class="cls-10"
           clip-path="url(#clip-path-4)"
           id="g368">
          <g
             id="g3722"
             class="cls-5">
            <g
               id="g3724">
              <path
                 id="path3726"
                 class="cls-2"
                 d="M.9,390.57c23.66,11.87,45.3-1.8,72.56,5.88,20.73,5.85,46,13.05,80.22,8.09s63.55-19.83,77.52-46.42c4.36-11.87,22.09,2.71,22.09,2.71s-12.92-5.41-12.62-2.86,19.38,11.42,19.38,11.42S242.77,364,243.82,368s21.64,20.28,21.64,20.28S242.17,370.59,240.22,373s9.91,12.17,9.91,12.17-19.68-12.17-26.59-8.58c-5,2.58,20.43,19.25,20.43,19.25s-16.52-12.62-20.43-9.32,18.63,30.35,18.63,30.35-25.54-27.64-28.09-26.29,7.06,14.57,7.06,14.57-12.62-13.82-16.08-11.41,18,38.3,18,38.3-23.28-36.8-32.9-30.64c15.1,33.12,9.47,37.85,9.47,37.85s-1.93-33.79-20.74-32.9c-9.46.45,4.51,25.24,4.51,25.24S170.57,408.94,162,409.39c15.78,29.87,10.15,42,10.15,42s2.61-25.51-18.79-39.7c8.11,7.2-5.09,39.7-5.09,39.7s11.61-47.89-8.57-38.76c-3.19,1.44-.22,23.89-.22,23.89s-4.06-25.69-10.14-24.34c-3.55.79-22.54,35.61-22.54,35.61s15.55-37.64,10.82-36.06c-3.45,1.15-9.91,16.68-9.91,16.68s3.15-15.33,0-16.23S87,428.43,87,428.43,100.05,413.1,97.8,410c-3.42-4.78-7.42-5-12.17-3.16-6.91,2.7-16.22,15.33-16.22,15.33s9.28-12.79,7.66-17.58c-2.61-7.7-29.3,14.87-29.3,14.87s15.78-14.87,12.17-18-23.18-2.18-29.29-2.2c-18-.06-24.28-4.29-29.75-8.62"
                 transform="translate(0 -300.25)" />
            </g>
          </g>
        </g>
      </g>
    </g>
    <g
       id="g3728">
      <path
         id="path3730"
         class="cls-2"
         d="M0,387.87c23.66,11.86,45.3-1.81,72.56,5.88,20.73,5.84,46,13,80.22,8.09S216.33,382,230.3,355.42c4.36-11.87,22.09,2.7,22.09,2.7s-12.92-5.41-12.62-2.85,19.38,11.41,19.38,11.41-17.28-5.4-16.23-1.35,21.64,20.28,21.64,20.28-23.29-17.73-25.24-15.32,9.91,12.17,9.91,12.17-19.68-12.17-26.59-8.58c-5,2.57,20.43,19.24,20.43,19.24s-16.53-12.62-20.43-9.31,18.63,30.35,18.63,30.35-25.54-27.65-28.09-26.29,7.06,14.57,7.06,14.57S207.62,388.62,204.16,391s18,38.31,18,38.31-23.29-36.81-32.9-30.65c15.1,33.13,9.46,37.86,9.46,37.86s-1.92-33.8-20.73-32.9c-9.46.45,4.51,25.24,4.51,25.24s-12.86-22.64-21.42-22.19c15.78,29.87,10.15,42,10.15,42s2.61-25.51-18.79-39.71c8.11,7.21-5.09,39.71-5.09,39.71S159,400.82,138.81,410c-3.18,1.44-.22,23.89-.22,23.89s-4.06-25.69-10.14-24.34c-3.55.78-22.54,35.6-22.54,35.6s15.55-37.63,10.82-36.05c-3.45,1.15-9.92,16.67-9.92,16.67s3.16-15.32,0-16.22-20.73,16.22-20.73,16.22S99.15,410.4,96.9,407.24c-3.42-4.78-7.42-5-12.17-3.15-6.91,2.69-16.22,15.32-16.22,15.32s9.28-12.79,7.66-17.57c-2.61-7.7-29.3,14.87-29.3,14.87s15.78-14.87,12.17-18-23.18-2.18-29.29-2.2c-18-.05-24.28-4.28-29.75-8.61"
         transform="translate(0 -300.25)" />
    </g>
  </g>
</svg>
