<?xml version="1.0" encoding="UTF-8" standalone="no"?>
<!-- Created with Inkscape (http://www.inkscape.org/) -->

<svg
   width="326.24423mm"
   height="122.88101mm"
   viewBox="0 0 326.24423 122.88101"
   version="1.1"
   id="svg5"
   xml:space="preserve"
   inkscape:version="1.2.1 (9c6d41e410, 2022-07-14)"
   sodipodi:docname="schemat_architektury_aplikacji_serwerowej.svg"
   inkscape:export-filename="schemat_architektury_aplikacji_serwerowej.png"
   inkscape:export-xdpi="150"
   inkscape:export-ydpi="150"
   xmlns:inkscape="http://www.inkscape.org/namespaces/inkscape"
   xmlns:sodipodi="http://sodipodi.sourceforge.net/DTD/sodipodi-0.dtd"
   xmlns="http://www.w3.org/2000/svg"
   xmlns:svg="http://www.w3.org/2000/svg"><sodipodi:namedview
     id="namedview7"
     pagecolor="#ffffff"
     bordercolor="#666666"
     borderopacity="1.0"
     inkscape:showpageshadow="2"
     inkscape:pageopacity="0.0"
     inkscape:pagecheckerboard="0"
     inkscape:deskcolor="#d1d1d1"
     inkscape:document-units="mm"
     showgrid="true"
     inkscape:zoom="0.76078844"
     inkscape:cx="878.03647"
     inkscape:cy="173.50421"
     inkscape:window-width="1864"
     inkscape:window-height="1007"
     inkscape:window-x="56"
     inkscape:window-y="44"
     inkscape:window-maximized="1"
     inkscape:current-layer="layer1"><inkscape:grid
       type="xygrid"
       id="grid132"
       originx="52.697192"
       originy="-7.9375006" /></sodipodi:namedview><defs
     id="defs2"><marker
       style="overflow:visible"
       id="Arrow2"
       refX="0"
       refY="0"
       orient="auto-start-reverse"
       inkscape:stockid="Arrow2"
       markerWidth="7.6999998"
       markerHeight="5.5999999"
       viewBox="0 0 7.7 5.6"
       inkscape:isstock="true"
       inkscape:collect="always"
       preserveAspectRatio="xMidYMid"><path
         transform="scale(0.7)"
         d="M -2,-4 9,0 -2,4 c 2,-2.33 2,-5.66 0,-8 z"
         style="fill:context-stroke;fill-rule:evenodd;stroke:none"
         id="arrow2L" /></marker><marker
       style="overflow:visible"
       id="marker1280"
       refX="0"
       refY="0"
       orient="auto-start-reverse"
       inkscape:stockid="RoundedArrow"
       markerWidth="6.1347523"
       markerHeight="5.9304953"
       viewBox="0 0 6.1347524 5.9304951"
       inkscape:isstock="true"
       inkscape:collect="always"
       preserveAspectRatio="xMidYMid"><path
         transform="scale(0.7)"
         d="m -0.21114562,-4.1055728 6.42229122,3.21114561 a 1,1 90 0 1 0,1.78885438 L -0.21114562,4.1055728 A 1.236068,1.236068 31.717474 0 1 -2,3 v -6 a 1.236068,1.236068 148.28253 0 1 1.78885438,-1.1055728 z"
         style="fill:context-stroke;fill-rule:evenodd;stroke:none"
         id="path1278" /></marker><marker
       style="overflow:visible"
       id="RoundedArrow"
       refX="0"
       refY="0"
       orient="auto-start-reverse"
       inkscape:stockid="RoundedArrow"
       markerWidth="6.1347523"
       markerHeight="5.9304953"
       viewBox="0 0 6.1347524 5.9304951"
       inkscape:isstock="true"
       inkscape:collect="always"
       preserveAspectRatio="xMidYMid"><path
         transform="scale(0.7)"
         d="m -0.21114562,-4.1055728 6.42229122,3.21114561 a 1,1 90 0 1 0,1.78885438 L -0.21114562,4.1055728 A 1.236068,1.236068 31.717474 0 1 -2,3 v -6 a 1.236068,1.236068 148.28253 0 1 1.78885438,-1.1055728 z"
         style="fill:context-stroke;fill-rule:evenodd;stroke:none"
         id="path1367" /></marker><marker
       style="overflow:visible"
       id="Arrow2-6"
       refX="0"
       refY="0"
       orient="auto-start-reverse"
       inkscape:stockid="Arrow2"
       markerWidth="7.6999998"
       markerHeight="5.5999999"
       viewBox="0 0 7.7 5.6"
       inkscape:isstock="true"
       inkscape:collect="always"
       preserveAspectRatio="xMidYMid"><path
         transform="scale(0.7)"
         d="M -2,-4 9,0 -2,4 c 2,-2.33 2,-5.66 0,-8 z"
         style="fill:context-stroke;fill-rule:evenodd;stroke:none"
         id="arrow2L-0" /></marker></defs><g
     inkscape:label="Warstwa 1"
     inkscape:groupmode="layer"
     id="layer1"
     transform="translate(52.697192,-7.9375005)"><g
       id="g1479"><rect
         style="fill:#e6e6e6;stroke:#000000;stroke-width:0.249999;stroke-linecap:round;stop-color:#000000"
         id="rect236"
         width="74.083328"
         height="10.333334"
         x="71.4375"
         y="8.0625"
         ry="0" /><text
         xml:space="preserve"
         style="font-style:normal;font-weight:normal;font-size:4.88618px;line-height:1.25;font-family:sans-serif;fill:#333333;fill-opacity:1;stroke:none;stroke-width:0.264583"
         x="74.932289"
         y="14.32614"
         id="text400"><tspan
           sodipodi:role="line"
           id="tspan398"
           style="font-style:normal;font-variant:normal;font-weight:bold;font-stretch:normal;font-family:sans-serif;-inkscape-font-specification:'sans-serif Bold';fill:#333333;stroke-width:0.264583"
           x="74.932289"
           y="14.32614">Punkt wejściowy programu</tspan></text></g><g
       id="g1474"
       transform="translate(-60.975369,-1.0969734)"><rect
         style="fill:#e6e6e6;stroke:#000000;stroke-width:0.249999;stroke-linecap:round;stop-color:#000000"
         id="rect236-3"
         width="52.916668"
         height="15.750005"
         x="95.25"
         y="42.458332"
         ry="0" /><text
         xml:space="preserve"
         style="font-style:normal;font-weight:normal;font-size:4.88618px;line-height:1.25;font-family:sans-serif;fill:#333333;fill-opacity:1;stroke:none;stroke-width:0.264583"
         x="121.82954"
         y="48.721973"
         id="text400-6"><tspan
           sodipodi:role="line"
           id="tspan398-7"
           style="font-style:normal;font-variant:normal;font-weight:bold;font-stretch:normal;font-family:sans-serif;-inkscape-font-specification:'sans-serif Bold';text-align:center;text-anchor:middle;fill:#333333;stroke-width:0.264583"
           x="121.82954"
           y="48.721973">Wątek obsługujący</tspan><tspan
           sodipodi:role="line"
           style="font-style:normal;font-variant:normal;font-weight:bold;font-stretch:normal;font-family:sans-serif;-inkscape-font-specification:'sans-serif Bold';text-align:center;text-anchor:middle;fill:#333333;stroke-width:0.264583"
           x="121.82954"
           y="54.829697"
           id="tspan1468">serwer HTTP</tspan></text></g><rect
       style="fill:#e6e6e6;stroke:#000000;stroke-width:0.249998;stroke-linecap:round;stop-color:#000000"
       id="rect236-3-3"
       width="63.492413"
       height="15.750005"
       x="124.23676"
       y="41.361359"
       ry="0" /><text
       xml:space="preserve"
       style="font-style:normal;font-weight:normal;font-size:4.88618px;line-height:1.25;font-family:sans-serif;fill:#333333;fill-opacity:1;stroke:none;stroke-width:0.264583"
       x="156.10417"
       y="47.625"
       id="text400-6-5"><tspan
         sodipodi:role="line"
         style="font-style:normal;font-variant:normal;font-weight:bold;font-stretch:normal;font-family:sans-serif;-inkscape-font-specification:'sans-serif Bold';text-align:center;text-anchor:middle;fill:#333333;stroke-width:0.264583"
         x="156.10417"
         y="47.625"
         id="tspan1468-2">Wątek obsługujący</tspan><tspan
         sodipodi:role="line"
         style="font-style:normal;font-variant:normal;font-weight:bold;font-stretch:normal;font-family:sans-serif;-inkscape-font-specification:'sans-serif Bold';text-align:center;text-anchor:middle;fill:#333333;stroke-width:0.264583"
         x="156.10417"
         y="53.732723"
         id="tspan1543">połączenia z czujnikami</tspan></text><path
       style="fill:none;fill-rule:evenodd;stroke:#000000;stroke-width:0.5;stroke-linecap:butt;stroke-linejoin:miter;stroke-opacity:1"
       d="M 108.47917,18.520833 V 29.104166"
       id="path499"
       inkscape:connector-type="polyline"
       inkscape:connector-curvature="0" /><path
       style="fill:none;fill-rule:evenodd;stroke:#000000;stroke-width:0.5;stroke-linecap:butt;stroke-linejoin:miter;stroke-opacity:1"
       d="M 60.854166,29.104166 H 156.10416"
       id="path501"
       inkscape:connector-type="polyline"
       inkscape:connector-curvature="0" /><path
       style="fill:none;fill-rule:evenodd;stroke:#000000;stroke-width:0.5;stroke-linecap:butt;stroke-linejoin:miter;stroke-opacity:1;marker-end:url(#marker1280)"
       d="m 60.854166,29.408614 v 8.151121"
       id="path503"
       inkscape:connector-type="polyline"
       inkscape:connector-curvature="0" /><path
       style="fill:none;fill-rule:evenodd;stroke:#000000;stroke-width:0.5;stroke-linecap:butt;stroke-linejoin:miter;stroke-dasharray:none;stroke-opacity:1;marker-end:url(#RoundedArrow)"
       d="m 156.10416,29.408614 v 8.151121"
       id="path505"
       inkscape:connector-type="polyline"
       inkscape:connector-curvature="0" /><path
       style="fill:none;stroke:#666666;stroke-width:0.5;stroke-linecap:butt;stroke-linejoin:miter;stroke-opacity:1;marker-end:url(#Arrow2)"
       d="m 81.340745,60.9414 c 5.375655,13.818412 42.417325,13.818412 47.708985,0"
       id="path1607"
       sodipodi:nodetypes="cc" /><path
       style="fill:none;stroke:#000000;stroke-width:0.5;stroke-linecap:butt;stroke-linejoin:miter;stroke-opacity:1;marker-end:url(#Arrow2-6)"
       d="m -9.1479815,60.823691 c 5.3756549,13.818412 42.4173255,13.818412 47.7089855,0"
       id="path1607-6"
       sodipodi:nodetypes="cc" /><text
       xml:space="preserve"
       style="font-style:normal;font-weight:normal;font-size:3.41493px;line-height:1.25;font-family:sans-serif;fill:#000000;fill-opacity:1;stroke:none;stroke-width:0.264583"
       x="87.398544"
       y="75.309761"
       id="text1705"><tspan
         sodipodi:role="line"
         id="tspan1703"
         style="stroke-width:0.264583"
         x="87.398544"
         y="75.309761">Wysyłanie poleceń od</tspan><tspan
         sodipodi:role="line"
         style="stroke-width:0.264583"
         x="87.398544"
         y="79.578423"
         id="tspan1707">użytkownika po wew.</tspan><tspan
         sodipodi:role="line"
         style="stroke-width:0.264583"
         x="87.398544"
         y="83.847084"
         id="tspan1709">szynie danych</tspan></text><text
       xml:space="preserve"
       style="font-style:normal;font-weight:normal;font-size:3.41493px;line-height:1.25;font-family:sans-serif;fill:#000000;fill-opacity:1;stroke:none;stroke-width:0.264583"
       x="-7.1775165"
       y="76.699173"
       id="text1705-2"><tspan
         sodipodi:role="line"
         style="stroke-width:0.264583"
         x="-7.1775165"
         y="76.699173"
         id="tspan1709-8">Wysyłanie żądań i poleceń</tspan></text><text
       xml:space="preserve"
       style="font-style:normal;font-weight:normal;font-size:3.41493px;line-height:1.25;font-family:sans-serif;fill:#000000;fill-opacity:1;stroke:none;stroke-width:0.264583"
       x="92.827545"
       y="34.365837"
       id="text1705-9"><tspan
         sodipodi:role="line"
         style="stroke-width:0.264583"
         x="92.827545"
         y="34.365837"
         id="tspan1709-7">Utworzenie wątków</tspan></text><g
       id="g5768"><text
         xml:space="preserve"
         style="font-style:normal;font-weight:normal;font-size:4.88618px;line-height:1.25;font-family:sans-serif;fill:#333333;fill-opacity:1;stroke:none;stroke-width:0.264583"
         x="107.15625"
         y="129.64583"
         id="text400-6-5-0"><tspan
           sodipodi:role="line"
           style="font-style:normal;font-variant:normal;font-weight:bold;font-stretch:normal;font-family:sans-serif;-inkscape-font-specification:'sans-serif Bold';text-align:center;text-anchor:middle;fill:#333333;stroke-width:0.264583"
           x="107.15625"
           y="129.64583"
           id="tspan1543-3">Baza danych</tspan></text><g
         id="g2689"
         transform="translate(-11.90625,10.583333)"><g
           id="g2672"
           transform="translate(0,10.583334)"><path
             id="path2668"
             style="fill:#e6e6e6;stroke:#666666;stroke-width:0.499999;stroke-linecap:round;stroke-dasharray:none;stop-color:#000000"
             d="m 111.125,97.895833 v 2.645837 a 7.9375,2.6458333 0 0 0 7.9375,2.64583 7.9375,2.6458333 0 0 0 7.9375,-2.64583 v -2.645837 h -7.9375 z" /><ellipse
             style="fill:#e6e6e6;stroke:#666666;stroke-width:0.499999;stroke-linecap:round;stroke-dasharray:none;stop-color:#000000"
             id="ellipse2670"
             cx="119.0625"
             cy="97.895836"
             rx="7.9375"
             ry="2.6458333" /></g><g
           id="g2666"
           transform="translate(0,7.9375004)"><path
             id="path2662"
             style="fill:#e6e6e6;stroke:#666666;stroke-width:0.499999;stroke-linecap:round;stroke-dasharray:none;stop-color:#000000"
             d="m 111.125,97.895833 v 2.645837 a 7.9375,2.6458333 0 0 0 7.9375,2.64583 7.9375,2.6458333 0 0 0 7.9375,-2.64583 v -2.645837 h -7.9375 z" /><ellipse
             style="fill:#e6e6e6;stroke:#666666;stroke-width:0.499999;stroke-linecap:round;stroke-dasharray:none;stop-color:#000000"
             id="ellipse2664"
             cx="119.0625"
             cy="97.895836"
             rx="7.9375"
             ry="2.6458333" /></g><g
           id="g2660"
           transform="translate(0,5.2916669)"><path
             id="path2656"
             style="fill:#e6e6e6;stroke:#666666;stroke-width:0.499999;stroke-linecap:round;stroke-dasharray:none;stop-color:#000000"
             d="m 111.125,97.895833 v 2.645837 a 7.9375,2.6458333 0 0 0 7.9375,2.64583 7.9375,2.6458333 0 0 0 7.9375,-2.64583 v -2.645837 h -7.9375 z" /><ellipse
             style="fill:#e6e6e6;stroke:#666666;stroke-width:0.499999;stroke-linecap:round;stroke-dasharray:none;stop-color:#000000"
             id="ellipse2658"
             cx="119.0625"
             cy="97.895836"
             rx="7.9375"
             ry="2.6458333" /></g><g
           id="g2654"
           transform="translate(0,2.6458334)"><path
             id="path2650"
             style="fill:#e6e6e6;stroke:#666666;stroke-width:0.499999;stroke-linecap:round;stroke-dasharray:none;stop-color:#000000"
             d="m 111.125,97.895833 v 2.645837 a 7.9375,2.6458333 0 0 0 7.9375,2.64583 7.9375,2.6458333 0 0 0 7.9375,-2.64583 v -2.645837 h -7.9375 z" /><ellipse
             style="fill:#e6e6e6;stroke:#666666;stroke-width:0.499999;stroke-linecap:round;stroke-dasharray:none;stop-color:#000000"
             id="ellipse2652"
             cx="119.0625"
             cy="97.895836"
             rx="7.9375"
             ry="2.6458333" /></g><g
           id="g2648"><path
             id="rect1881"
             style="fill:#e6e6e6;stroke:#666666;stroke-width:0.499999;stroke-linecap:round;stroke-dasharray:none;stop-color:#000000"
             d="m 111.125,97.895833 v 2.645837 a 7.9375,2.6458333 0 0 0 7.9375,2.64583 7.9375,2.6458333 0 0 0 7.9375,-2.64583 v -2.645837 h -7.9375 z" /><ellipse
             style="fill:#e6e6e6;stroke:#666666;stroke-width:0.499999;stroke-linecap:round;stroke-dasharray:none;stop-color:#000000"
             id="path1875"
             cx="119.0625"
             cy="97.895836"
             rx="7.9375"
             ry="2.6458333" /></g></g></g><path
       style="fill:none;stroke:#000000;stroke-width:0.5;stroke-linecap:butt;stroke-linejoin:miter;stroke-opacity:1;marker-start:url(#Arrow2)"
       d="m 122.49165,113.77083 c 31.75002,0 31.75002,-23.812497 31.75002,-55.562497"
       id="path2976"
       sodipodi:nodetypes="cc" /><text
       xml:space="preserve"
       style="font-style:normal;font-weight:normal;font-size:3.94933px;line-height:1.25;font-family:sans-serif;fill:#000000;fill-opacity:1;stroke:none;stroke-width:0.264583"
       x="148.16667"
       y="111.125"
       id="text3032"><tspan
         sodipodi:role="line"
         id="tspan3030"
         style="stroke-width:0.264583"
         x="148.16667"
         y="111.125">zapis danych</tspan><tspan
         sodipodi:role="line"
         style="stroke-width:0.264583"
         x="148.16667"
         y="116.06166"
         id="tspan3034">do bazy</tspan></text><g
       id="g11798"><text
         xml:space="preserve"
         style="font-style:normal;font-weight:normal;font-size:4.88618px;line-height:1.25;font-family:sans-serif;fill:#333333;fill-opacity:1;stroke:none;stroke-width:0.264583"
         x="-36.968575"
         y="46.046829"
         id="text400-6-5-0-7"><tspan
           sodipodi:role="line"
           style="font-style:normal;font-variant:normal;font-weight:bold;font-stretch:normal;font-family:sans-serif;-inkscape-font-specification:'sans-serif Bold';text-align:center;text-anchor:middle;fill:#333333;stroke-width:0.264583"
           x="-36.968575"
           y="46.046829"
           id="tspan1543-3-9">Przeglądarka</tspan><tspan
           sodipodi:role="line"
           style="font-style:normal;font-variant:normal;font-weight:bold;font-stretch:normal;font-family:sans-serif;-inkscape-font-specification:'sans-serif Bold';text-align:center;text-anchor:middle;fill:#333333;stroke-width:0.264583"
           x="-36.968575"
           y="52.154552"
           id="tspan5770">użytkownika</tspan></text><path
         d="m -7.6447337,54.932238 c -0.557838,0.617932 -1.200424,1.23124 -1.927763,1.839925 0.197247,-0.0262 0.394488,-0.05856 0.587111,-0.09554 0.527016,-0.106327 1.033998,-0.261966 1.524026,-0.474621 0.126361,-0.05393 0.249641,-0.11095 0.371378,-0.169507 0.09091,0.117114 0.192622,0.218819 0.302029,0.305113 0.118656,0.094 0.245017,0.167967 0.37754,0.223442 -0.243474,0.130983 -0.493115,0.249638 -0.748918,0.360588 -0.543965,0.234229 -1.103335,0.405277 -1.679659,0.522391 -0.57633,0.117115 -1.1726843,0.175672 -1.7859973,0.175672 -0.613308,0 -1.205043,-0.05856 -1.785991,-0.175672 -0.570157,-0.112491 -1.118746,-0.281998 -1.658087,-0.511604 -0.0047,0 -0.01543,-0.0046 -0.02155,-0.01079 -0.533179,-0.229606 -1.040161,-0.506982 -1.51324,-0.821341 -0.474623,-0.314359 -0.912262,-0.676489 -1.311374,-1.077142 -0.405275,-0.399113 -0.762779,-0.836751 -1.077141,-1.311372 -0.320523,-0.47462 -0.591735,-0.981601 -0.82134,-1.513238 -0.234229,-0.543965 -0.405278,-1.10334 -0.522392,-1.679664 -0.112491,-0.574785 -0.171048,-1.172683 -0.171048,-1.785992 0,-0.613309 0.05856,-1.205044 0.175672,-1.785992 0.11249,-0.570161 0.281998,-1.118749 0.511603,-1.658091 0,-0.0046 0.0046,-0.01541 0.01079,-0.02157 0.229605,-0.537801 0.506981,-1.040159 0.82134,-1.513239 0.314358,-0.47462 0.676487,-0.912258 1.077142,-1.311371 0.399113,-0.405277 0.836752,-0.762783 1.311369,-1.077142 0.474623,-0.320524 0.980061,-0.591735 1.51324,-0.821341 0.543965,-0.234228 1.103341,-0.405277 1.679665,-0.522391 0.574787,-0.115573 1.172683,-0.17413 1.784453,-0.17413 0.613308,0 1.2050433,0.05856 1.7859913,0.175671 0.570163,0.112492 1.118746,0.281999 1.658087,0.511605 0.0047,0 0.01543,0.0046 0.02155,0.01079 0.533178,0.229605 1.04016,0.506981 1.513239,0.82134 0.474623,0.31436 0.912262,0.676489 1.311375,1.077143 0.405274,0.399113 0.762779,0.83675 1.077138,1.31137 0.320527,0.474621 0.591735,0.981602 0.821341,1.51324 0.23423,0.543964 0.40528,1.103338 0.522392,1.679664 0.06626,0.326687 0.114032,0.659538 0.14331,0.998552 l -0.805931,-0.214195 c -0.02464,-0.212655 -0.05702,-0.422228 -0.09862,-0.63026 -0.106326,-0.527014 -0.261965,-1.033995 -0.474623,-1.524025 -0.132523,-0.31436 -0.282,-0.613309 -0.448425,-0.901471 v 0 h -2.601165 c 0.462293,0.79052 0.795144,1.576418 0.99701,2.360775 l -0.875273,-0.232687 c -0.228063,-0.702686 -0.571706,-1.411535 -1.033999,-2.128088 h -3.1235563 v 1.446976 c -0.0555,0.03236 -0.11095,0.07089 -0.164882,0.114033 v 0 c -0.04316,0.0339 -0.08475,0.07088 -0.12328,0.109409 -0.05242,0.05393 -0.101708,0.11095 -0.14331,0.172589 -0.0678,0.09862 -0.121736,0.208032 -0.163344,0.325146 -0.04159,0.118655 -0.06626,0.23731 -0.07551,0.352884 -0.0077,0.09862 -0.0047,0.200327 0.01077,0.30049 0.01235,0.08321 0.03081,0.164885 0.05856,0.245015 l 0.0077,0.02157 c 0.0062,0.01695 0.01235,0.0339 0.01852,0.04931 0.0093,0.0262 0.01695,0.04161 0.02004,0.04931 l 0.0029,-0.0015 0.559376,1.258978 h -0.0093 v 3.667524 h 1.6365083 l 0.345181,0.778193 h -1.9801573 v 2.739856 c 0.8706543,-0.715013 1.6180283,-1.43619 2.2405783,-2.158908 z m 5.880366,0.01233 c -0.05242,0.05239 -0.114037,0.09246 -0.178755,0.121738 -0.0678,0.03082 -0.140229,0.04931 -0.212658,0.05548 -0.07859,0.0062 -0.15872,-0.0015 -0.235768,-0.0262 -0.07397,-0.02312 -0.144853,-0.06164 -0.208033,-0.114033 l -1.708938,-1.45006 -0.587116,1.440813 c -0.04933,0.120196 -0.107869,0.231147 -0.174131,0.33131 -0.0678,0.101704 -0.143309,0.18954 -0.2219,0.258884 -0.06318,0.05548 -0.132523,0.103246 -0.204947,0.138688 -0.07243,0.03545 -0.146396,0.05856 -0.223444,0.06934 -0.08938,0.01233 -0.178749,0.0062 -0.265046,-0.01849 -0.08321,-0.02465 -0.163344,-0.06472 -0.240392,-0.124819 -0.06164,-0.04777 -0.118656,-0.109409 -0.172588,-0.183376 -0.04933,-0.0678 -0.094,-0.147934 -0.135609,-0.240392 -1.112584,-2.507169 -2.439364,-5.205419 -3.431754,-7.729538 -0.01235,-0.0339 -0.02155,-0.0678 -0.02621,-0.103246 -0.0047,-0.03544 -0.0062,-0.07088 -0.0029,-0.106327 0.0029,-0.04161 0.01235,-0.08167 0.02621,-0.121737 0.01386,-0.03853 0.03238,-0.07705 0.0555,-0.11095 0.01235,-0.01695 0.02464,-0.0339 0.04007,-0.04777 0.01235,-0.01233 0.02621,-0.02465 0.04158,-0.03544 0.02772,-0.02157 0.05702,-0.04006 0.08783,-0.05547 l 0.0077,-0.0031 c 0.02929,-0.01387 0.0601,-0.02465 0.08938,-0.03082 l 0.01386,-0.0031 c 0.02772,-0.0062 0.05545,-0.0092 0.08322,-0.01079 0.03238,-0.0015 0.06318,0.0015 0.094,0.0062 0.01077,0.0015 0.02155,0.0031 0.03238,0.0046 2.718282,0.674948 5.451975,1.445437 8.1640959,2.165072 0.097083,0.0262 0.1833737,0.05856 0.25888403,0.09554 0.081672,0.04161 0.1510147,0.08784 0.2080333,0.140229 0.07088,0.06472 0.1248176,0.138687 0.161801,0.217277 0.038498,0.08167 0.058556,0.169507 0.0601,0.260426 v 0.0015 c 0.00175,0.07705 -0.00926,0.154098 -0.032382,0.231146 -0.023122,0.07705 -0.058556,0.151016 -0.1047883,0.223442 -0.057019,0.08938 -0.1309854,0.178753 -0.2203572,0.260425 -0.086297,0.08013 -0.18800403,0.155639 -0.30049193,0.224983 -0.4453448,0.261965 -0.8891458,0.539341 -1.3314038,0.807471 l 1.70277583,1.459305 c 0.061643,0.05393 0.1109503,0.117114 0.1448527,0.186458 l 0.00466,0.01233 c 0.032382,0.06934 0.052418,0.14177 0.058556,0.217278 0.00617,0.07551 -0.00175,0.154097 -0.024636,0.231146 -0.021549,0.07243 -0.057019,0.143311 -0.106326,0.206491 -0.26042163,0.320523 -0.69652323,0.881438 -0.98468553,1.148027 z m -0.446888,-0.559374 0.8244277,-0.967733 -2.0032737,-1.716648 -0.01077,-0.01079 c -0.0093,-0.0092 -0.02004,-0.02004 -0.02772,-0.02928 -0.01235,-0.01387 -0.02312,-0.02928 -0.03238,-0.04623 -0.05085,-0.08321 -0.06164,-0.178752 -0.04007,-0.266588 0.02155,-0.08784 0.07705,-0.167967 0.160264,-0.217278 0.579405,-0.318982 1.177308,-0.718095 1.749007,-1.061732 0.066262,-0.04007 0.124818,-0.08475 0.1741312,-0.129443 0.046244,-0.04315 0.084753,-0.08629 0.1109503,-0.127901 0.010775,-0.01695 0.018521,-0.03082 0.023122,-0.04469 -0.012347,-0.0092 -0.026209,-0.01695 -0.046244,-0.0262 -0.029295,-0.01387 -0.067805,-0.0262 -0.1124937,-0.03853 l -7.6617328,-2.031006 3.217559,7.247212 c 0.01852,0.04006 0.03698,0.07551 0.05702,0.104786 l 0.0047,0.0077 c 0.01077,0.01387 0.02004,0.0262 0.02772,0.0339 0.01235,-0.0062 0.02464,-0.01695 0.04007,-0.03082 0.03698,-0.03236 0.07397,-0.07705 0.107869,-0.129443 0.03698,-0.05548 0.07089,-0.121736 0.100164,-0.195703 l 0.770485,-1.892319 0.0077,-0.01541 c 0.0062,-0.01233 0.01235,-0.02465 0.01852,-0.03544 l 0.0047,-0.0077 c 0.0077,-0.01233 0.01695,-0.02465 0.02772,-0.03698 0.06318,-0.07397 0.151014,-0.117115 0.240392,-0.123278 0.08938,-0.0077 0.181836,0.02004 0.257346,0.08321 z m -9.4538863,2.38697 c -1.257436,-1.055568 -2.265238,-2.121924 -3.011069,-3.203689 h -2.459398 c 0.23423,0.320523 0.496195,0.617931 0.77819,0.901471 0.368296,0.368293 0.762785,0.693439 1.194262,0.980061 0.426847,0.288162 0.890683,0.5378 1.391497,0.751996 0.0047,0.0046 0.01077,0.0046 0.01543,0.01079 0.485409,0.201867 0.986223,0.362129 1.508616,0.463834 0.192622,0.03698 0.389869,0.06934 0.585573,0.09554 z m -5.982073,-3.981882 h 2.473266 c -0.687275,-1.205044 -1.06019,-2.43012 -1.103336,-3.667524 h -2.440907 c 0.02157,0.42685 0.06934,0.83675 0.149474,1.242026 0.106328,0.527014 0.260426,1.033996 0.474621,1.524027 0.132524,0.314359 0.282,0.613308 0.446882,0.901471 z m -1.070977,-4.445717 h 2.457856 c 0.09092,-1.215831 0.496195,-2.436284 1.215829,-3.667524 h -2.602708 c -0.164882,0.288162 -0.314358,0.585571 -0.448423,0.901471 -0.0046,0.0046 -0.0046,0.01079 -0.01079,0.01541 -0.201868,0.485408 -0.36213,0.986225 -0.463834,1.508616 -0.07859,0.405276 -0.132524,0.815176 -0.147934,1.242027 z m 1.577959,-4.445717 h 2.596545 c 0.741212,-1.066356 1.716649,-2.137335 2.932478,-3.214477 -0.21882,0.0262 -0.431471,0.05856 -0.639505,0.101704 -0.527011,0.106328 -1.033992,0.261966 -1.524026,0.474621 -0.496195,0.212655 -0.960026,0.463834 -1.391503,0.751997 -0.431471,0.288162 -0.825959,0.613308 -1.194256,0.980061 -0.281995,0.281998 -0.543965,0.580948 -0.77819,0.901471 z m 7.5107183,-3.214477 c 1.220453,1.077142 2.195895,2.148121 2.932477,3.214477 h 2.596546 c -0.234225,-0.320524 -0.496195,-0.617932 -0.77819,-0.901472 -0.368297,-0.368293 -0.762785,-0.693439 -1.194256,-0.981602 -0.426853,-0.288162 -0.890689,-0.5378 -1.391503,-0.751996 -0.0047,-0.0046 -0.01078,-0.0046 -0.01543,-0.01079 -0.485409,-0.201868 -0.986223,-0.36213 -1.508616,-0.463834 -0.212657,-0.04315 -0.426852,-0.07397 -0.639504,-0.101705 v -0.0031 z m -0.6025223,0.506981 v 2.707496 h 2.5795983 c -0.676489,-0.895307 -1.534813,-1.796779 -2.5795983,-2.707496 z m -0.778189,15.116979 v -2.739856 h -2.713664 c 0.698067,0.916881 1.604161,1.833762 2.713664,2.739856 z m 0,-3.518049 v -3.667524 h -4.488869 c 0.04776,1.23124 0.463836,2.451693 1.23124,3.667524 z m 0,-4.445717 v -3.667524 h -3.123563 c -0.799768,1.242027 -1.24665,2.46248 -1.348352,3.667524 z m 0,-4.445717 v -2.707496 c -1.044785,0.912258 -1.90311,1.812189 -2.579598,2.707496 z"
         id="path5006"
         style="stroke-width:0.264583" /></g><path
       style="fill:none;stroke:#000000;stroke-width:0.5;stroke-linecap:butt;stroke-linejoin:miter;stroke-opacity:1;marker-end:url(#Arrow2-6)"
       d="m 234.26342,60.823691 c -5.37566,13.818412 -42.41735,13.818412 -47.70902,0"
       id="path5780"
       sodipodi:nodetypes="cc" /><path
       style="fill:none;stroke:#000000;stroke-width:0.5;stroke-linecap:butt;stroke-linejoin:miter;stroke-opacity:1;marker-end:url(#Arrow2-6)"
       d="m 185.6609,36.745814 c 5.37565,-13.818412 42.41735,-13.818412 47.70901,0"
       id="path5796"
       sodipodi:nodetypes="cc" /><text
       xml:space="preserve"
       style="font-style:normal;font-weight:normal;font-size:3.41493px;line-height:1.25;font-family:sans-serif;fill:#000000;fill-opacity:1;stroke:none;stroke-width:0.264583"
       x="196.02258"
       y="23.782505"
       id="text9001"><tspan
         sodipodi:role="line"
         style="stroke-width:0.264583"
         x="196.02258"
         y="23.782505"
         id="tspan8999">Wysyłanie poleceń</tspan></text><text
       xml:space="preserve"
       style="font-style:normal;font-weight:normal;font-size:3.41493px;line-height:1.25;font-family:sans-serif;fill:#000000;fill-opacity:1;stroke:none;stroke-width:0.264583"
       x="196.02258"
       y="76.699173"
       id="text9005"><tspan
         sodipodi:role="line"
         style="stroke-width:0.264583"
         x="196.02258"
         y="76.699173"
         id="tspan9003">Wysyłanie danych</tspan></text><g
       id="g11835"><rect
         style="fill:#e6e6e6;stroke:#000000;stroke-width:0.499999;stroke-linecap:round;stroke-dasharray:none;stop-color:#000000"
         id="rect11746"
         width="13.229166"
         height="21.166666"
         x="238.125"
         y="39.6875"
         ry="2.6458333" /><rect
         style="fill:#808080;stroke:#000000;stroke-width:0.499999;stroke-linecap:round;stroke-dasharray:none;stop-color:#000000"
         id="rect11748"
         width="7.9375"
         height="6.3645849"
         x="240.77083"
         y="42.333332"
         ry="2.1215305" /><text
         xml:space="preserve"
         style="font-style:normal;font-weight:normal;font-size:4.88618px;line-height:1.25;font-family:sans-serif;fill:#333333;fill-opacity:1;stroke:none;stroke-width:0.264583"
         x="264.58334"
         y="50.270832"
         id="text400-6-5-0-7-2"><tspan
           sodipodi:role="line"
           style="font-style:normal;font-variant:normal;font-weight:bold;font-stretch:normal;font-family:sans-serif;-inkscape-font-specification:'sans-serif Bold';text-align:center;text-anchor:middle;fill:#333333;stroke-width:0.264583"
           x="264.58334"
           y="50.270832"
           id="tspan5770-2">Czujnik</tspan></text></g></g></svg>
